# xmcd
#
# Track frame offsets:
#	150
#	11958
#	22683
#	31258
#	41408
#	50908
#	62133
#	74458
#	84008
#	101458
#	113583
#	126108
#	134808
#	145565
#	158808
#	168608
#	178808
#	191308
#	202083
#	214683
#
# Disc length: 2993 seconds
#
# Revision: 1
# Processed by: cddbd v1.5.1PL2 Copyright (c) Steve Scherf et al.
# Submitted via: audiograbber 1.83.01
#
DISCID=180baf14
DTITLE=Kern Buam - Das Beste von Die Kern-Buam
DYEAR=1994
DGENRE=Volksmusik
TTITLE0=I bin a Steirerbua
TTITLE1=San alle da
TTITLE2=Es gibt guate Menschen
TTITLE3=I bin halt a Lump
TTITLE4=So a Leben halt's a Du net aus
TTITLE5=I bin a armer Halterbua
TTITLE6=Schneider Wirt Marsch
TTITLE7=Illo Polka
TTITLE8=Es ziehen zwie Freunde
TTITLE9=Bei der Mitt'n muaßt's halten
TTITLE10=Miatzl aufstehn
TTITLE11=A guater Hahn, der wird net fett
TTITLE12=Der Seppl vom Land
TTITLE13=Der Weltverdruß
TTITLE14=Der steirische Brauch
TTITLE15=Posaunenkönig
TTITLE16=Ja in Gradenberg
TTITLE17=Weil i bei der Mutter z'Haus
TTITLE18=Die Träne
TTITLE19=I lieg im Strass'n Grab'n
EXTD=
EXTT0=
EXTT1=
EXTT2=
EXTT3=
EXTT4=
EXTT5=
EXTT6=
EXTT7=
EXTT8=
EXTT9=
EXTT10=
EXTT11=
EXTT12=
EXTT13=
EXTT14=
EXTT15=
EXTT16=
EXTT17=
EXTT18=
EXTT19=
PLAYORDER=
